<?xml version="1.0" encoding="UTF-8" standalone="no"?>
<svg
   xmlns:dc="http://purl.org/dc/elements/1.1/"
   xmlns:cc="http://creativecommons.org/ns#"
   xmlns:rdf="http://www.w3.org/1999/02/22-rdf-syntax-ns#"
   xmlns:svg="http://www.w3.org/2000/svg"
   xmlns="http://www.w3.org/2000/svg"
   xmlns:sodipodi="http://sodipodi.sourceforge.net/DTD/sodipodi-0.dtd"
   xmlns:inkscape="http://www.inkscape.org/namespaces/inkscape"
   inkscape:version="1.0 (4035a4fb49, 2020-05-01)"
   sodipodi:docname="power_source.svg"
   version="1.1"
   width="512"
   viewBox="0 0 24 24"
   height="512"
   enable-background="new 0 0 24 24"
   id="light">
  <metadata
     id="metadata35">
    <rdf:RDF>
      <cc:Work
         rdf:about="">
        <dc:format>image/svg+xml</dc:format>
        <dc:type
           rdf:resource="http://purl.org/dc/dcmitype/StillImage" />
      </cc:Work>
    </rdf:RDF>
  </metadata>
  <defs
     id="defs33" />
  <sodipodi:namedview
     inkscape:current-layer="light"
     inkscape:window-maximized="1"
     inkscape:window-y="-8"
     inkscape:window-x="1912"
     inkscape:cy="320.43603"
     inkscape:cx="49.681927"
     inkscape:zoom="0.58281067"
     showgrid="false"
     id="namedview31"
     inkscape:window-height="1011"
     inkscape:window-width="1920"
     inkscape:pageshadow="2"
     inkscape:pageopacity="0"
     guidetolerance="10"
     gridtolerance="10"
     objecttolerance="10"
     borderopacity="1"
     bordercolor="#666666"
     pagecolor="#ffffff" />
  <path
     id="path24"
     d="m19.5 19h-5c-.276 0-.5-.224-.5-.5s.224-.5.5-.5h5c.827 0 1.5-.673 1.5-1.5v-1c0-.276.224-.5.5-.5h.991c.276 0 .5-.224.5-.5v-6c0-.276-.224-.5-.5-.5h-.991c-.276 0-.5-.224-.5-.5v-1c0-.827-.673-1.5-1.5-1.5h-3c-.276 0-.5-.224-.5-.5s.224-.5.5-.5h3c1.378 0 2.5 1.122 2.5 2.5v.5h.491c.827 0 1.5.673 1.5 1.5v6c0 .827-.673 1.5-1.5 1.5h-.491v.5c0 1.378-1.122 2.5-2.5 2.5z" />
  <path
     id="path26"
     d="m6.5 19h-4c-1.378 0-2.5-1.122-2.5-2.5v-10c0-1.378 1.122-2.5 2.5-2.5h7c.276 0 .5.224.5.5s-.224.5-.5.5h-7c-.827 0-1.5.673-1.5 1.5v10c0 .827.673 1.5 1.5 1.5h4c.276 0 .5.224.5.5s-.224.5-.5.5z" />
  <path
     id="path28"
     d="m9.303 21c-.079 0-.16-.019-.234-.058-.215-.114-.317-.367-.24-.599l2.094-6.343h-3.923c-.186 0-.356-.103-.443-.268-.086-.165-.074-.364.032-.517l6.926-10c.136-.196.395-.266.611-.174.219.096.34.333.289.566l-1.408 6.393h3.993c.19 0 .364.108.449.279.084.171.063.375-.053.526l-7.697 10c-.097.127-.245.195-.396.195zm-1.348-8h3.66c.161 0 .311.077.405.207s.12.297.069.45l-1.39 4.209 5.285-6.866h-3.599c-.151 0-.295-.069-.39-.187s-.131-.273-.099-.421l.996-4.521z" />
  <path
     transform="scale(0.046875)"
     id="path37"
     d="m 229.91469,377.67474 c 0,-0.25362 6.41517,-19.90266 14.25593,-43.66453 10.60183,-32.12947 14.25592,-43.94779 14.25592,-46.10754 0,-3.68406 -1.40437,-6.65186 -4.13253,-8.73312 l -2.14188,-1.634 -40.84463,-0.30332 -40.84463,-0.30332 51.41311,-74.26314 c 28.27722,-40.84472 51.48944,-73.86977 51.58272,-73.389 0.0933,0.48077 -4.36142,21.34183 -9.89932,46.35792 -5.87518,26.53961 -10.07239,46.81006 -10.07724,48.66808 -0.01,3.68128 1.51251,6.63201 4.53219,8.7859 l 1.9288,1.37578 40.12694,0.30332 40.12694,0.30332 -54.77679,71.16802 c -30.12724,39.14241 -54.94076,71.33198 -55.14116,71.53239 -0.2004,0.2004 -0.36437,0.15685 -0.36437,-0.0968 z"
     style="fill:#ffd42a;stroke-width:0.606635" />
</svg>
