<?xml version="1.0" encoding="UTF-8" standalone="no"?>
<svg
   xmlns:dc="http://purl.org/dc/elements/1.1/"
   xmlns:cc="http://creativecommons.org/ns#"
   xmlns:rdf="http://www.w3.org/1999/02/22-rdf-syntax-ns#"
   xmlns:svg="http://www.w3.org/2000/svg"
   xmlns="http://www.w3.org/2000/svg"
   xmlns:sodipodi="http://sodipodi.sourceforge.net/DTD/sodipodi-0.dtd"
   xmlns:inkscape="http://www.inkscape.org/namespaces/inkscape"
   id="light"
   enable-background="new 0 0 24 24"
   height="512"
   viewBox="0 0 24 24"
   width="512"
   version="1.1"
   sodipodi:docname="power_source.svg"
   inkscape:version="1.0 (4035a4fb49, 2020-05-01)">
  <metadata
     id="metadata35">
    <rdf:RDF>
      <cc:Work
         rdf:about="">
        <dc:format>image/svg+xml</dc:format>
        <dc:type
           rdf:resource="http://purl.org/dc/dcmitype/StillImage" />
      </cc:Work>
    </rdf:RDF>
  </metadata>
  <defs
     id="defs33" />
  <sodipodi:namedview
     inkscape:document-rotation="0"
     pagecolor="#ffffff"
     bordercolor="#666666"
     borderopacity="1"
     objecttolerance="10"
     gridtolerance="10"
     guidetolerance="10"
     inkscape:pageopacity="0"
     inkscape:pageshadow="2"
     inkscape:window-width="1920"
     inkscape:window-height="1011"
     id="namedview31"
     showgrid="false"
     inkscape:zoom="0.58281067"
     inkscape:cx="49.681927"
     inkscape:cy="320.43603"
     inkscape:window-x="1912"
     inkscape:window-y="-8"
     inkscape:window-maximized="1"
     inkscape:current-layer="light" />
  <path
     d="m 19.5,19.375 h -5 c -0.276,0 -0.5,-0.224 -0.5,-0.5 0,-0.276 0.224,-0.5 0.5,-0.5 h 5 c 0.827,0 1.5,-0.673 1.5,-1.5 v -1 c 0,-0.276 0.224,-0.5 0.5,-0.5 h 0.991 c 0.276,0 0.5,-0.224 0.5,-0.5 v -6 c 0,-0.276 -0.224,-0.5 -0.5,-0.5 H 21.5 c -0.276,0 -0.5,-0.224 -0.5,-0.5 v -1 c 0,-0.827 -0.673,-1.5 -1.5,-1.5 h -3 c -0.276,0 -0.5,-0.224 -0.5,-0.5 0,-0.276 0.224,-0.5 0.5,-0.5 h 3 c 1.378,0 2.5,1.122 2.5,2.5 v 0.5 h 0.491 c 0.827,0 1.5,0.673 1.5,1.5 v 6 c 0,0.827 -0.673,1.5 -1.5,1.5 H 22 v 0.5 c 0,1.378 -1.122,2.5 -2.5,2.5 z"
     id="path24" />
  <path
     d="m 6.5,19.375 h -4 c -1.378,0 -2.5,-1.122 -2.5,-2.5 v -10 c 0,-1.378 1.122,-2.5 2.5,-2.5 h 7 c 0.276,0 0.5,0.224 0.5,0.5 0,0.276 -0.224,0.5 -0.5,0.5 h -7 C 1.673,5.375 1,6.048 1,6.875 v 10 c 0,0.827 0.673,1.5 1.5,1.5 h 4 c 0.276,0 0.5,0.224 0.5,0.5 0,0.276 -0.224,0.5 -0.5,0.5 z"
     id="path26" />
  <path
     d="m 9.303,21.375 c -0.079,0 -0.16,-0.019 -0.234,-0.058 C 8.854,21.203 8.752,20.95 8.829,20.718 l 2.094,-6.343 H 7 C 6.814,14.375 6.644,14.272 6.557,14.107 6.471,13.942 6.483,13.743 6.589,13.59 l 6.926,-10 c 0.136,-0.196 0.395,-0.266 0.611,-0.174 0.219,0.096 0.34,0.333 0.289,0.566 l -1.408,6.393 H 17 c 0.19,0 0.364,0.108 0.449,0.279 0.084,0.171 0.063,0.375 -0.053,0.526 l -7.697,10 c -0.097,0.127 -0.245,0.195 -0.396,0.195 z m -1.348,-8 h 3.66 c 0.161,0 0.311,0.077 0.405,0.207 0.094,0.13 0.12,0.297 0.069,0.45 l -1.39,4.209 5.285,-6.866 h -3.599 c -0.151,0 -0.295,-0.069 -0.39,-0.187 C 11.9,11.07 11.864,10.915 11.896,10.767 l 0.996,-4.521 z"
     id="path28" />
  <path
     style="fill:#ffd42a;stroke-width:0.028436"
     d="m 10.777251,18.078503 c 0,-0.01189 0.300711,-0.932937 0.668247,-2.046774 0.496961,-1.506069 0.668246,-2.060053 0.668246,-2.161291 0,-0.172691 -0.06583,-0.311806 -0.193712,-0.409365 l -0.100401,-0.07659 -1.9145919,-0.01422 -1.9145921,-0.01422 2.40999,-3.481085 c 1.325494,-1.9145963 2.413567,-3.4626455 2.41794,-3.4401094 0.0044,0.022536 -0.204442,1.0003983 -0.464031,2.1730275 -0.275399,1.2440442 -0.472143,2.1942219 -0.472371,2.2813159 -4.68e-4,0.17256 0.0709,0.310876 0.212447,0.411839 l 0.09041,0.06449 1.880951,0.01422 1.88095,0.01422 -2.567662,3.336001 c -1.412215,1.834801 -2.575348,3.343687 -2.584742,3.353081 -0.0094,0.0094 -0.01708,0.0074 -0.01708,-0.0045 z"
     id="path37" />
</svg>
