<?xml version="1.0" encoding="utf-8"?>
<svg id="master-artboard" viewBox="0 0 1400 980" version="1.1" xmlns="http://www.w3.org/2000/svg" x="0px" y="0px" style="enable-background:new 0 0 336 235.2;" width="1400px" height="980px"><rect id="ee-background" x="0" y="0" width="1400" height="980" style="fill: white; fill-opacity: 0; pointer-events: none;"/>














<g transform="matrix(40.83333079020182, 0, 0, 40.83333079020182, 210.00009612499161, 0.0000045722572394879535)"><path d="m19.5 19h-5c-.276 0-.5-.224-.5-.5s.224-.5.5-.5h5c.827 0 1.5-.673 1.5-1.5v-1c0-.276.224-.5.5-.5h.991c.276 0 .5-.224.5-.5v-6c0-.276-.224-.5-.5-.5h-.991c-.276 0-.5-.224-.5-.5v-1c0-.827-.673-1.5-1.5-1.5h-3c-.276 0-.5-.224-.5-.5s.224-.5.5-.5h3c1.378 0 2.5 1.122 2.5 2.5v.5h.491c.827 0 1.5.673 1.5 1.5v6c0 .827-.673 1.5-1.5 1.5h-.491v.5c0 1.378-1.122 2.5-2.5 2.5z"/><path d="m6.5 19h-4c-1.378 0-2.5-1.122-2.5-2.5v-10c0-1.378 1.122-2.5 2.5-2.5h7c.276 0 .5.224.5.5s-.224.5-.5.5h-7c-.827 0-1.5.673-1.5 1.5v10c0 .827.673 1.5 1.5 1.5h4c.276 0 .5.224.5.5s-.224.5-.5.5z"/><path d="m9.303 21c-.079 0-.16-.019-.234-.058-.215-.114-.317-.367-.24-.599l2.094-6.343h-3.923c-.186 0-.356-.103-.443-.268-.086-.165-.074-.364.032-.517l6.926-10c.136-.196.395-.266.611-.174.219.096.34.333.289.566l-1.408 6.393h3.993c.19 0 .364.108.449.279.084.171.063.375-.053.526l-7.697 10c-.097.127-.245.195-.396.195zm-1.348-8h3.66c.161 0 .311.077.405.207s.12.297.069.45l-1.39 4.209 5.285-6.866h-3.599c-.151 0-.295-.069-.39-.187s-.131-.273-.099-.421l.996-4.521z" style="stroke-opacity: 1; stroke: rgb(255, 234, 0); stroke-width: 0; fill: rgb(255, 197, 23); fill-opacity: 1;"/></g></svg>