<?xml version="1.0" encoding="UTF-8" standalone="no"?>
<svg
   xmlns:dc="http://purl.org/dc/elements/1.1/"
   xmlns:cc="http://creativecommons.org/ns#"
   xmlns:rdf="http://www.w3.org/1999/02/22-rdf-syntax-ns#"
   xmlns:svg="http://www.w3.org/2000/svg"
   xmlns="http://www.w3.org/2000/svg"
   xmlns:sodipodi="http://sodipodi.sourceforge.net/DTD/sodipodi-0.dtd"
   xmlns:inkscape="http://www.inkscape.org/namespaces/inkscape"
   inkscape:version="1.0 (4035a4fb49, 2020-05-01)"
   sodipodi:docname="led_on.svg"
   version="1.1"
   width="512"
   viewBox="0 0 512 512"
   height="512"
   enable-background="new 0 0 512 512"
   id="Capa_1">
  <metadata
     id="metadata49">
    <rdf:RDF>
      <cc:Work
         rdf:about="">
        <dc:format>image/svg+xml</dc:format>
        <dc:type
           rdf:resource="http://purl.org/dc/dcmitype/StillImage" />
      </cc:Work>
    </rdf:RDF>
  </metadata>
  <defs
     id="defs47" />
  <sodipodi:namedview
     inkscape:current-layer="Capa_1"
     inkscape:window-maximized="1"
     inkscape:window-y="-8"
     inkscape:window-x="1912"
     inkscape:cy="333.6587"
     inkscape:cx="333.96534"
     inkscape:zoom="0.82421875"
     showgrid="false"
     id="namedview45"
     inkscape:window-height="1011"
     inkscape:window-width="1920"
     inkscape:pageshadow="2"
     inkscape:pageopacity="0"
     guidetolerance="10"
     gridtolerance="10"
     objecttolerance="10"
     borderopacity="1"
     bordercolor="#666666"
     pagecolor="#ffffff" />
  <g
     transform="rotate(90,256,256)"
     id="g42">
    <path
       id="path2"
       fill="#b6edfe"
       d="m 326.57,392.6 v 74.34 L 287.89,512 H 224.11 L 185.43,466.94 V 392.6 Z" />
    <path
       id="path4"
       fill="#99bef3"
       d="m 256,392.6 h 70.57 v 74.34 L 287.89,512 H 256 Z" />
    <path
       id="path6"
       fill="#fff576"
       d="m 357.4,101.4 v 232.85 l -10.15,11.58 H 164.75 L 154.6,334.25 V 101.4 C 154.6,45.4 200,0 256,0 312,0 357.4,45.4 357.4,101.4 Z" />
    <path
       id="path8"
       fill="#ffda2d"
       d="m 357.4,101.4 v 232.85 l -10.15,11.58 H 256 V 0 c 56,0 101.4,45.4 101.4,101.4 z" />
    <path
       id="path10"
       fill="#ffda2d"
       d="m 290.79,163.61 -16.01,15 16.01,15 v 54.36 l -16.01,15 16.01,15 v 67.86 h -69.58 v -67.86 l 16.01,-15 -16.01,-15 v -54.36 l 16.01,-15 -16.01,-15 v -59.6 h 69.58 z" />
    <path
       id="path12"
       fill="#fcb503"
       d="m 290.79,163.61 -16.01,15 16.01,15 v 54.36 l -16.01,15 16.01,15 v 67.86 H 256 V 104.01 h 34.79 z" />
    <path
       id="path14"
       transform="matrix(0.924,-0.383,0.383,0.924,-6.616,177.585)"
       fill="#ffda2d"
       d="m 417.786,90.423 h 50.576 v 29.999 h -50.576 z" />
    <path
       id="path16"
       transform="matrix(0.383,-0.924,0.924,0.383,32.947,570.11)"
       fill="#ffda2d"
       d="m 428.078,235.113 h 30 v 50.576 h -30 z" />
    <path
       id="path18"
       fill="#ffda2d"
       d="M 433.206,167.917 H 512 v 30 h -78.794 z" />
    <path
       id="path20"
       fill="#fcb503"
       d="m 221.21,247.97 h 69.58 v 30 h -69.58 z" />
    <path
       id="path22"
       fill="#fcb503"
       d="m 221.21,163.61 h 69.58 v 30 h -69.58 z" />
    <g
       id="g28">
      <path
         id="path24"
         fill="#455da0"
         d="m 357.4,334.25 -30.83,74.36 H 185.43 L 154.6,334.25 Z" />
      <path
         id="path26"
         fill="#214070"
         d="m 357.4,334.25 -30.83,74.36 H 256 v -74.36 z" />
    </g>
    <path
       id="path30"
       fill="#d97c00"
       d="m 256,163.61 h 34.79 v 30 H 256 Z" />
    <path
       id="path32"
       fill="#d97c00"
       d="m 256,247.97 h 34.79 v 30 H 256 Z" />
    <g
       id="g40"
       fill="#fff576">
      <path
         id="path34"
         transform="matrix(0.383,-0.924,0.924,0.383,-54.849,128.755)"
         d="m 53.926,80.135 h 30 v 50.576 h -30 z" />
      <path
         id="path36"
         transform="matrix(0.924,-0.383,0.383,0.924,-94.397,46.191)"
         d="m 43.633,245.401 h 50.576 v 30 H 43.633 Z" />
      <path
         id="path38"
         d="m 0,167.917 h 78.794 v 30 H 0 Z" />
    </g>
  </g>
</svg>
