<?xml version="1.0" encoding="UTF-8" standalone="no"?>
<svg
   xmlns:dc="http://purl.org/dc/elements/1.1/"
   xmlns:cc="http://creativecommons.org/ns#"
   xmlns:rdf="http://www.w3.org/1999/02/22-rdf-syntax-ns#"
   xmlns:svg="http://www.w3.org/2000/svg"
   xmlns="http://www.w3.org/2000/svg"
   xmlns:sodipodi="http://sodipodi.sourceforge.net/DTD/sodipodi-0.dtd"
   xmlns:inkscape="http://www.inkscape.org/namespaces/inkscape"
   viewBox="0 0 64.8 48"
   width="54"
   height="40"
   version="1.1"
   id="svg115"
   sodipodi:docname="nand.svg"
   inkscape:version="1.0 (4035a4fb49, 2020-05-01)">
  <metadata
     id="metadata121">
    <rdf:RDF>
      <cc:Work
         rdf:about="">
        <dc:format>image/svg+xml</dc:format>
        <dc:type
           rdf:resource="http://purl.org/dc/dcmitype/StillImage" />
        <dc:title></dc:title>
      </cc:Work>
    </rdf:RDF>
  </metadata>
  <defs
     id="defs119" />
  <sodipodi:namedview
     scale-x="1.2"
     inkscape:document-rotation="0"
     pagecolor="#ffffff"
     bordercolor="#666666"
     borderopacity="1"
     objecttolerance="10"
     gridtolerance="10"
     guidetolerance="10"
     inkscape:pageopacity="0"
     inkscape:pageshadow="2"
     inkscape:window-width="1920"
     inkscape:window-height="1011"
     id="namedview117"
     showgrid="false"
     inkscape:zoom="10.49"
     inkscape:cx="31.926368"
     inkscape:cy="31.741477"
     inkscape:window-x="1912"
     inkscape:window-y="-8"
     inkscape:window-maximized="1"
     inkscape:current-layer="svg115" />
  <path
     sodipodi:nodetypes="ccccccccccccccccccscsssccsssssccccss"
     style="fill:#000080;stroke-width:0.114692"
     d="M 16.137277,43.488628 V 37.231499 H 8.1088968 0.08051701 V 35.516894 33.964488 H 8.1088968 16.137277 V 24.908664 14.112094 H 8.1088968 0.08051701 V 11.948565 10.801653 H 8.1088968 16.137277 V 5.4111685 0.02068564 h 13.126261 c 13.996757,0 14.276553,0.0095046 16.811711,0.57425405 C 56.926667,3.0120527 64.651628,12.741328 64.651628,23.991135 c 0,12.144222 -8.848903,22.237163 -20.855635,23.787657 -1.223101,0.157946 -3.198932,0.18279 -14.537102,0.18279 H 16.137277 Z m 26.876536,0.974902 c 5.899591,-0.773369 11.01882,-3.943857 14.306445,-8.860398 2.274204,-3.401005 3.431872,-7.31137 3.431872,-11.592171 0,-4.55139 -1.175247,-8.55918 -3.540609,-12.07407 C 54.059881,7.2536009 49.349152,4.3302847 43.64823,3.519978 42.664815,3.3801995 40.468162,3.350567 30.961106,3.3488297 L 19.46332,3.346664 v 20.644471 20.644404 h 11.119165 c 9.223178,0 11.34291,-0.02933 12.431328,-0.172009 z"
     id="path138" />
  <text
     xml:space="preserve"
     style="font-size:12.8332px;line-height:1.25;font-family:sans-serif;stroke-width:1.20311"
     x="22.631243"
     y="27.848045"
     id="text142"><tspan
       sodipodi:role="line"
       id="tspan140"
       x="22.631243"
       y="27.848045"
       style="font-style:normal;font-variant:normal;font-weight:bold;font-stretch:normal;font-size:11.229px;font-family:Gadugi;-inkscape-font-specification:'Gadugi Bold';stroke-width:1.20311">NAND</tspan></text>
</svg>
